<?xml version="1.0" encoding="UTF-8" ?>
<!DOCTYPE svg PUBLIC "-//W3C//DTD SVG 1.1//EN" "http://www.w3.org/Graphics/SVG/1.1/DTD/svg11.dtd">
<svg width="1488pt" height="1041pt" viewBox="0 0 1488 1041" version="1.1" xmlns="http://www.w3.org/2000/svg">
<g id="#efc238ff">
<path fill="#efc238" opacity="1.00" d=" M 735.55 24.73 C 742.49 22.97 749.89 25.22 755.46 29.51 C 810.33 69.34 872.16 101.22 938.95 114.92 C 957.76 118.76 976.87 121.12 996.04 122.00 C 1007.09 122.23 1016.96 132.03 1017.21 143.09 C 1017.44 181.40 1017.24 219.72 1017.31 258.04 C 1017.08 289.70 1018.46 321.54 1014.04 353.00 C 1006.19 412.80 983.23 470.72 946.99 519.02 C 912.20 565.52 865.25 602.96 811.87 625.93 C 800.05 631.08 788.01 635.65 775.94 640.14 C 754.35 648.27 729.89 648.71 708.10 641.09 C 648.15 618.92 594.44 580.58 553.25 531.78 C 497.63 466.16 465.15 381.11 464.11 295.01 C 463.95 246.33 464.05 197.66 464.01 148.99 C 464.04 145.34 463.74 141.59 464.88 138.07 C 467.57 128.95 476.45 121.93 486.03 121.89 C 552.32 119.28 616.57 96.67 673.61 63.57 C 690.96 53.55 707.82 42.65 724.03 30.86 C 727.56 28.32 731.25 25.77 735.55 24.73 M 707.31 95.37 C 646.92 132.04 579.23 158.40 508.52 165.00 C 508.54 195.33 508.47 225.66 508.52 255.99 C 508.71 277.31 507.82 298.69 509.95 319.94 C 515.12 375.27 534.68 429.12 565.92 475.06 C 600.54 525.98 649.36 567.33 705.76 592.19 C 716.40 596.72 727.21 601.97 739.04 602.00 C 754.15 602.85 767.69 595.26 781.49 590.35 C 825.12 573.75 864.61 546.51 895.59 511.59 C 934.81 467.73 960.04 412.02 968.96 353.97 C 971.89 335.46 972.99 316.70 972.79 297.97 C 972.88 253.64 972.81 209.32 972.81 164.99 C 960.62 163.77 948.48 162.05 936.44 159.77 C 865.65 146.52 799.55 114.53 740.69 73.65 C 729.79 81.22 718.67 88.49 707.31 95.37 Z" />
<path fill="#efc238" opacity="1.00" d=" M 697.82 206.85 C 703.36 201.60 711.51 199.20 718.99 200.89 C 728.25 202.75 735.92 210.69 737.37 220.04 C 738.64 227.70 735.94 235.96 730.16 241.19 C 704.78 264.78 679.34 288.29 653.98 311.89 C 731.31 311.89 808.64 311.93 885.97 311.89 C 893.55 311.60 901.23 315.00 905.84 321.07 C 910.94 327.50 912.18 336.69 909.09 344.28 C 905.68 353.10 896.48 359.26 887.03 359.10 C 809.75 359.08 732.47 359.11 655.19 359.11 C 681.25 382.67 707.34 406.19 733.40 429.74 C 739.22 435.05 742.04 443.41 740.62 451.16 C 739.27 459.46 733.00 466.63 725.09 469.37 C 717.07 472.18 707.68 470.21 701.45 464.45 C 660.29 427.32 619.14 390.18 578.00 353.03 C 571.43 347.15 568.61 337.40 571.16 328.94 C 572.38 324.50 575.12 320.62 578.47 317.52 C 618.25 280.63 658.04 243.74 697.82 206.85 Z" />
<path fill="#efc238" opacity="1.00" d=" M 333.08 874.17 C 346.53 863.42 363.86 857.71 381.06 858.37 C 399.72 858.85 417.94 866.96 430.92 880.33 C 423.21 888.14 415.46 895.90 407.75 903.72 C 406.20 905.23 404.81 906.97 402.93 908.12 C 400.45 906.64 398.45 904.48 395.91 903.12 C 386.46 897.79 374.50 897.33 364.55 901.54 C 356.18 905.05 349.68 912.51 347.15 921.22 C 343.13 934.39 347.04 950.34 358.56 958.52 C 368.34 965.60 381.93 966.60 392.91 961.83 C 396.72 960.25 399.83 957.49 403.02 954.96 C 411.25 962.73 419.14 970.87 427.29 978.72 C 428.68 980.02 429.92 981.47 431.01 983.04 C 421.46 992.70 409.27 999.80 396.05 1003.02 C 379.77 1007.08 362.11 1005.29 347.00 998.01 C 331.33 990.55 318.50 977.33 311.53 961.44 C 305.22 947.25 303.66 931.04 306.99 915.89 C 310.53 899.53 319.95 884.54 333.08 874.17 Z" />
<path fill="#efc238" opacity="1.00" d=" M 521.21 858.33 C 527.36 858.34 533.51 858.32 539.66 858.34 C 562.19 906.39 584.71 954.44 607.26 1002.48 C 607.92 1003.33 608.17 1005.45 606.63 1005.46 C 593.91 1005.60 581.18 1005.47 568.45 1005.52 C 565.50 999.20 562.53 992.90 559.61 986.57 C 540.30 986.54 520.99 986.57 501.67 986.56 C 498.73 992.88 495.94 999.27 492.91 1005.56 C 480.30 1005.44 467.69 1005.60 455.09 1005.49 C 453.28 1005.64 453.36 1003.28 454.26 1002.29 C 476.60 954.31 498.88 906.31 521.21 858.33 M 517.45 952.41 C 526.24 952.42 535.02 952.42 543.80 952.41 C 539.44 942.90 535.08 933.39 530.71 923.89 C 526.29 933.40 521.86 942.90 517.45 952.41 Z" />
<path fill="#efc238" opacity="1.00" d=" M 653.78 868.82 C 667.48 860.48 683.99 856.95 699.91 858.79 C 716.51 860.56 732.29 868.40 743.92 880.33 C 735.38 888.98 726.78 897.57 718.27 906.24 C 717.28 907.15 715.89 908.92 714.68 907.32 C 702.19 895.81 680.79 895.77 668.47 907.53 C 655.59 919.76 655.32 942.57 667.74 955.22 C 679.60 967.37 701.09 968.01 713.77 956.76 C 714.51 956.14 715.26 955.55 716.02 954.96 C 722.88 961.41 729.47 968.16 736.21 974.75 C 738.84 977.49 741.92 979.84 744.00 983.07 C 732.32 994.87 716.68 1002.76 700.15 1004.64 C 684.56 1006.51 668.39 1003.21 654.83 995.27 C 641.26 987.41 630.33 975.09 624.19 960.66 C 616.79 943.52 616.33 923.53 622.89 906.06 C 628.59 890.63 639.69 877.29 653.78 868.82 Z" />
<path fill="#efc238" opacity="1.00" d=" M 932.37 860.05 C 932.14 858.60 933.80 858.14 934.92 858.33 C 961.27 858.34 987.62 858.33 1013.97 858.34 C 1017.37 858.35 1020.81 858.12 1024.20 858.69 C 1024.24 869.56 1024.16 880.43 1024.24 891.30 C 1021.19 891.99 1018.05 891.72 1014.97 891.75 C 1000.76 891.74 986.55 891.75 972.34 891.75 C 972.32 899.05 972.34 906.36 972.33 913.67 C 986.20 913.65 1000.06 913.70 1013.93 913.64 C 1015.27 913.87 1017.46 913.04 1018.13 914.73 C 1018.38 925.57 1018.14 936.43 1018.24 947.28 C 1002.98 948.17 987.63 947.42 972.34 947.66 C 972.32 955.86 972.33 964.07 972.34 972.27 C 986.55 972.26 1000.76 972.27 1014.98 972.27 C 1018.06 972.29 1021.20 972.00 1024.25 972.74 C 1024.08 983.25 1024.37 993.78 1024.12 1004.29 C 1023.89 1004.53 1023.43 1005.01 1023.20 1005.25 C 993.05 1005.46 962.88 1005.26 932.72 1005.34 C 931.83 995.59 932.58 985.74 932.33 975.95 C 932.36 937.31 932.29 898.68 932.37 860.05 Z" />
<path fill="#efc238" opacity="1.00" d=" M 1054.66 858.72 C 1069.40 857.82 1084.23 858.59 1099.00 858.33 C 1109.82 858.65 1120.91 857.23 1131.45 860.40 C 1148.54 865.16 1162.73 878.88 1168.16 895.76 C 1174.82 915.20 1168.91 937.92 1154.00 951.96 C 1164.15 969.35 1174.25 986.76 1184.43 1004.13 C 1183.49 1005.07 1182.35 1005.47 1181.02 1005.35 C 1167.02 1005.32 1153.02 1005.34 1139.02 1005.33 C 1131.57 992.51 1124.09 979.70 1116.65 966.86 C 1109.33 966.84 1102.01 966.86 1094.69 966.86 C 1094.68 976.57 1094.68 986.29 1094.69 996.01 C 1094.66 999.12 1094.91 1002.28 1094.26 1005.36 C 1081.11 1005.21 1067.95 1005.52 1054.81 1005.20 C 1054.48 956.38 1054.76 907.55 1054.66 858.72 M 1094.68 892.44 C 1094.69 905.62 1094.68 918.80 1094.69 931.98 C 1102.45 931.94 1110.23 932.05 1118.00 931.95 C 1124.61 931.82 1131.01 928.07 1134.34 922.35 C 1138.16 915.98 1137.92 907.44 1133.76 901.29 C 1130.32 896.00 1124.21 892.59 1117.91 892.46 C 1110.17 892.39 1102.42 892.46 1094.68 892.44 Z" />
<path fill="#efc238" opacity="1.00" d=" M 776.20 859.04 C 777.65 858.21 779.38 858.59 780.98 858.49 C 792.27 858.65 803.59 858.32 814.87 858.65 L 815.80 859.09 C 816.23 876.07 815.85 893.09 815.98 910.08 C 830.61 910.08 845.24 910.08 859.87 910.08 C 859.87 894.04 859.89 878.00 859.86 861.95 C 859.78 860.42 859.81 858.07 862.02 858.55 C 873.36 858.46 884.70 858.58 896.03 858.49 C 897.26 858.63 900.01 858.00 899.81 860.08 C 899.94 907.73 899.87 955.40 899.85 1003.05 C 900.29 1004.90 898.60 1005.60 897.05 1005.35 C 885.00 1005.25 872.95 1005.48 860.91 1005.23 C 860.68 1004.98 860.21 1004.46 859.98 1004.20 C 859.73 986.19 859.95 968.15 859.88 950.13 C 845.24 950.12 830.61 950.12 815.98 950.13 C 815.98 965.74 815.97 981.36 815.99 996.99 C 815.95 999.60 816.19 1002.25 815.72 1004.86 C 814.27 1005.64 812.53 1005.23 810.97 1005.36 C 799.97 1005.27 788.98 1005.40 777.98 1005.31 C 775.82 1005.71 775.98 1003.40 775.97 1001.99 C 775.99 964.00 775.97 926.01 775.98 888.02 C 776.13 878.36 775.67 868.68 776.20 859.04 Z" />
</g>
<g id="#ffffffff">
<path fill="#ffffff" opacity="1.00" d=" M 50.09 692.08 C 64.34 684.68 81.06 682.29 96.84 685.17 C 111.63 687.80 125.44 695.26 135.92 706.00 C 126.60 715.31 117.47 724.82 108.01 733.99 C 96.05 722.40 75.61 721.00 62.50 731.42 C 47.65 743.09 46.66 767.81 59.90 781.05 C 72.08 793.33 94.12 793.61 106.63 781.66 C 107.59 780.36 108.95 781.19 109.74 782.16 C 118.46 790.77 127.16 799.40 135.92 807.98 C 134.80 810.38 132.59 811.94 130.65 813.63 C 117.95 824.31 101.57 830.56 84.97 830.80 C 69.07 831.16 53.11 826.12 40.32 816.67 C 27.06 807.00 17.20 792.76 12.90 776.92 C 8.57 761.18 9.63 744.01 15.98 728.97 C 22.56 713.18 34.87 699.88 50.09 692.08 Z" />
<path fill="#ffffff" opacity="1.00" d=" M 169.02 684.08 C 189.34 683.89 209.67 684.05 230.00 684.00 C 244.88 683.91 259.58 690.42 269.65 701.36 C 280.00 712.39 285.37 727.88 284.00 742.95 C 282.95 756.06 276.76 768.53 267.33 777.64 C 277.28 794.81 287.45 811.88 297.25 829.14 C 297.19 829.61 297.09 830.56 297.04 831.03 C 282.14 830.96 267.24 831.03 252.34 830.99 C 244.90 818.16 237.42 805.34 229.97 792.52 C 222.65 792.52 215.34 792.52 208.02 792.52 C 207.95 805.03 208.15 817.54 207.93 830.04 C 207.70 830.26 207.25 830.70 207.02 830.92 C 194.65 831.10 182.27 830.97 169.90 830.98 C 168.18 831.30 167.78 829.29 167.99 828.06 C 168.07 780.37 167.88 732.67 168.08 684.99 C 168.32 684.76 168.79 684.31 169.02 684.08 M 208.02 718.10 C 208.02 731.28 208.01 744.47 208.02 757.65 C 215.98 757.60 223.94 757.73 231.89 757.59 C 241.62 757.26 250.15 748.72 250.37 738.96 C 251.14 728.84 242.96 719.11 232.83 718.24 C 224.57 717.92 216.29 718.20 208.02 718.10 Z" />
<path fill="#ffffff" opacity="1.00" d=" M 319.80 683.98 C 349.23 684.02 378.65 684.00 408.08 683.99 C 409.34 683.86 411.56 684.02 411.19 685.90 C 411.17 696.04 411.33 706.19 411.11 716.33 C 410.84 716.57 410.29 717.06 410.01 717.31 C 393.13 717.57 376.23 717.34 359.33 717.42 C 359.33 724.72 359.33 732.03 359.34 739.34 C 373.25 739.32 387.16 739.35 401.07 739.32 C 402.46 739.30 403.84 739.47 405.22 739.70 C 405.17 750.56 405.37 761.43 405.13 772.29 C 404.54 774.01 402.31 773.04 400.97 773.35 C 387.09 773.31 373.21 773.34 359.33 773.33 C 359.33 781.53 359.34 789.73 359.33 797.93 C 375.57 797.94 391.82 797.94 408.06 797.93 C 409.38 797.83 411.64 797.95 411.19 799.94 C 411.17 809.96 411.32 819.99 411.12 830.01 C 410.87 830.24 410.36 830.68 410.11 830.90 C 380.01 831.14 349.89 830.90 319.78 831.02 C 319.05 828.04 319.38 824.96 319.33 821.94 C 319.33 778.96 319.33 735.98 319.33 693.00 C 319.39 689.99 319.03 686.92 319.80 683.98 Z" />
<path fill="#ffffff" opacity="1.00" d=" M 442.10 684.27 C 454.01 683.63 466.00 684.19 477.94 684.00 C 488.99 684.25 500.19 683.16 511.10 685.50 C 528.38 688.99 544.19 699.06 554.79 713.14 C 564.51 725.91 569.82 741.95 569.66 758.00 C 569.62 775.11 563.30 792.10 552.18 805.11 C 538.89 820.91 518.68 830.65 498.01 830.97 C 480.32 831.04 462.64 830.97 444.95 831.01 C 443.56 831.02 441.28 831.12 441.69 829.05 C 441.62 782.38 441.71 735.70 441.65 689.02 C 441.75 687.44 441.37 685.73 442.10 684.27 M 481.47 724.88 C 481.49 747.08 481.47 769.28 481.48 791.48 C 489.27 791.17 497.23 792.30 504.88 790.40 C 518.21 787.07 528.65 774.78 529.70 761.07 C 531.21 747.02 522.45 732.84 509.44 727.51 C 500.64 723.55 490.80 725.23 481.47 724.88 Z" />
<path fill="#ffffff" opacity="1.00" d=" M 599.99 684.08 C 630.08 683.86 660.18 684.13 690.27 683.95 C 691.33 686.84 690.74 689.97 690.87 692.99 C 690.74 700.93 691.13 708.89 690.69 716.82 L 689.85 717.31 C 672.91 717.55 655.95 717.35 639.00 717.41 C 638.99 724.72 639.00 732.02 639.00 739.33 C 651.65 739.33 664.30 739.34 676.95 739.33 C 679.60 739.37 682.33 739.03 684.91 739.84 C 684.81 750.56 685.05 761.29 684.80 772.01 C 684.80 773.91 682.21 773.14 681.05 773.36 C 667.04 773.30 653.02 773.35 639.00 773.33 C 638.99 781.53 639.00 789.73 639.00 797.94 C 656.11 797.91 673.23 798.00 690.34 797.89 C 691.16 800.50 690.83 803.27 690.88 805.97 C 690.79 813.95 691.01 821.93 690.79 829.91 C 690.59 830.16 690.19 830.67 689.99 830.92 C 660.29 831.10 630.59 830.97 600.89 830.99 C 599.14 831.33 598.79 829.26 598.99 828.04 C 599.07 780.37 598.88 732.69 599.08 685.03 C 599.31 684.79 599.76 684.32 599.99 684.08 Z" />
<path fill="#ffffff" opacity="1.00" d=" M 722.22 684.29 C 727.13 684.06 732.06 684.20 736.99 684.20 C 738.34 683.95 739.12 685.21 740.01 685.98 C 761.76 707.74 783.54 729.46 805.33 751.18 C 805.39 729.21 805.22 707.24 805.41 685.27 C 805.62 685.02 806.03 684.53 806.23 684.29 C 818.80 684.12 831.40 684.12 843.97 684.28 C 845.90 684.22 845.15 686.80 845.35 687.99 C 845.29 735.00 845.37 782.01 845.31 829.02 C 845.81 831.10 843.50 831.37 842.01 831.20 C 837.41 831.03 832.73 831.51 828.20 830.95 C 805.76 808.80 783.64 786.28 761.33 763.99 C 761.28 786.07 761.44 808.15 761.25 830.22 C 761.01 830.44 760.53 830.88 760.30 831.10 C 747.44 831.30 734.57 831.13 721.71 831.18 C 720.84 819.83 721.57 808.39 721.33 797.00 C 721.39 759.76 721.22 722.50 721.42 685.26 C 721.62 685.02 722.02 684.53 722.22 684.29 Z" />
<path fill="#ffffff" opacity="1.00" d=" M 874.62 686.90 C 874.25 685.35 875.18 683.81 876.91 684.23 C 914.51 684.25 952.13 684.07 989.73 684.32 C 989.92 684.56 990.31 685.04 990.50 685.28 C 990.71 695.16 990.51 705.06 990.59 714.95 C 990.54 717.95 990.83 721.00 990.18 723.97 C 977.51 724.04 964.85 723.98 952.19 724.00 C 952.19 755.68 952.19 787.35 952.19 819.03 C 951.89 822.87 952.82 826.99 951.71 830.66 C 938.80 831.49 925.72 830.71 912.75 831.04 C 911.94 828.42 912.26 825.67 912.22 822.98 C 912.23 789.99 912.22 756.99 912.23 724.00 C 900.14 723.92 888.05 724.15 875.98 723.89 C 873.95 723.98 874.85 721.19 874.60 719.98 C 874.65 708.95 874.61 697.93 874.62 686.90 Z" />
<path fill="#ffffff" opacity="1.00" d=" M 1019.64 688.04 C 1019.88 686.81 1018.99 684.07 1021.00 684.11 C 1033.73 683.83 1046.48 684.11 1059.22 683.98 C 1059.79 686.28 1059.68 688.65 1059.68 691.01 C 1059.59 737.26 1059.79 783.51 1059.58 829.74 C 1059.38 829.99 1058.98 830.47 1058.78 830.71 C 1046.20 830.88 1033.60 830.88 1021.02 830.71 C 1019.10 830.72 1019.81 828.23 1019.65 827.08 C 1019.68 780.73 1019.68 734.39 1019.64 688.04 Z" />
<path fill="#ffffff" opacity="1.00" d=" M 1150.20 684.00 C 1156.35 684.00 1162.51 683.99 1168.67 684.01 C 1191.50 732.71 1214.31 781.43 1237.20 830.11 C 1236.26 830.87 1235.22 831.23 1234.05 831.20 C 1221.86 831.19 1209.66 831.18 1197.47 831.20 C 1194.49 824.88 1191.54 818.56 1188.60 812.24 C 1169.28 812.23 1149.97 812.22 1130.65 812.24 C 1127.78 818.56 1124.88 824.87 1121.99 831.19 C 1108.99 831.20 1095.99 831.16 1083.00 831.21 C 1082.08 829.58 1083.28 828.09 1083.85 826.66 C 1106.01 779.13 1128.08 731.55 1150.20 684.00 M 1159.61 749.62 C 1155.33 759.16 1150.82 768.59 1146.45 778.08 C 1155.23 778.08 1164.02 778.08 1172.81 778.08 C 1168.37 768.61 1164.23 759.00 1159.61 749.62 Z" />
<path fill="#ffffff" opacity="1.00" d=" M 1259.69 685.96 C 1259.27 683.83 1261.56 683.98 1262.99 683.99 C 1275.05 684.05 1287.12 683.92 1299.19 684.06 C 1299.95 694.01 1299.31 704.03 1299.52 714.01 C 1299.52 739.68 1299.52 765.35 1299.52 791.02 C 1316.73 791.03 1333.95 790.99 1351.16 791.04 C 1352.17 798.29 1351.32 805.69 1351.60 813.00 C 1351.42 819.05 1352.00 825.14 1351.26 831.16 C 1321.84 831.23 1292.43 831.15 1263.01 831.20 C 1261.57 831.38 1259.25 831.12 1259.68 829.10 C 1259.66 781.39 1259.64 733.67 1259.69 685.96 Z" />
<path fill="#ffffff" opacity="1.00" d=" M 1395.77 694.73 C 1410.27 682.10 1432.91 680.50 1449.19 690.66 C 1462.86 698.77 1471.29 714.50 1470.91 730.35 C 1459.34 730.35 1447.76 730.59 1436.20 730.42 C 1434.64 728.45 1435.13 725.46 1433.34 723.56 C 1430.17 718.91 1422.95 717.88 1418.82 721.81 C 1414.19 725.56 1414.23 733.34 1418.85 737.09 C 1422.46 740.43 1427.65 739.08 1432.06 739.99 C 1450.51 742.57 1466.29 757.67 1469.87 775.91 C 1473.50 792.34 1467.30 810.53 1454.01 820.95 C 1439.32 833.00 1417.02 834.29 1400.97 824.17 C 1387.65 816.10 1379.29 800.65 1379.64 785.11 L 1380.15 784.21 C 1391.09 783.77 1402.08 784.11 1413.04 784.04 C 1415.90 783.50 1415.17 787.12 1416.11 788.86 C 1418.21 795.06 1426.87 797.03 1431.69 792.75 C 1436.34 789.25 1436.47 781.68 1432.06 777.93 C 1428.28 774.11 1422.53 775.60 1417.78 774.59 C 1401.39 772.17 1387.01 759.91 1382.06 744.09 C 1376.21 726.85 1381.68 706.38 1395.77 694.73 Z" />
</g>
</svg>
