<?xml version="1.0" encoding="UTF-8" ?>
<!DOCTYPE svg PUBLIC "-//W3C//DTD SVG 1.1//EN" "http://www.w3.org/Graphics/SVG/1.1/DTD/svg11.dtd">
<svg width="1488pt" height="1041pt" viewBox="0 0 1488 1041" version="1.1" xmlns="http://www.w3.org/2000/svg">
<g id="#efc238ff">
<path fill="#efc238" opacity="1.00" d=" M 735.52 24.73 C 742.46 22.97 749.86 25.21 755.43 29.49 C 811.68 70.32 875.30 102.83 944.00 115.91 C 961.15 119.17 978.53 121.19 995.98 122.00 C 1007.38 122.19 1017.45 132.57 1017.24 143.98 C 1017.40 188.99 1017.25 234.00 1017.31 279.00 C 1017.48 306.02 1017.38 333.18 1013.05 359.92 C 1003.27 425.01 975.39 487.51 932.25 537.34 C 896.91 578.35 851.55 610.63 801.16 630.43 C 785.44 636.35 769.99 643.83 753.12 645.76 C 738.77 647.52 724.02 646.26 710.25 641.82 C 639.55 616.31 577.48 568.18 534.02 506.96 C 490.69 446.32 465.74 372.57 464.16 298.00 C 463.90 246.65 464.07 195.28 464.02 143.92 C 463.94 132.28 474.44 121.88 486.05 121.89 C 525.05 120.37 563.60 111.83 600.16 98.34 C 642.64 82.68 682.42 60.32 719.33 34.24 C 724.48 30.72 729.32 26.31 735.52 24.73 M 711.69 92.69 C 650.17 130.76 580.95 158.23 508.52 165.01 C 508.52 207.67 508.48 250.33 508.54 293.00 C 509.18 362.85 533.08 432.11 575.08 487.87 C 612.57 537.80 664.18 577.27 722.77 599.12 C 736.97 604.05 752.75 602.40 766.29 596.21 C 780.77 590.69 795.28 585.17 809.10 578.13 C 852.23 556.47 889.67 523.75 917.24 484.16 C 953.32 432.62 972.32 369.74 972.76 306.96 C 972.89 259.63 972.81 212.31 972.81 164.99 C 926.05 160.44 880.27 147.60 837.37 128.55 C 803.42 113.52 771.20 94.77 740.69 73.65 C 731.19 80.24 721.53 86.61 711.69 92.69 Z" />
<path fill="#efc238" opacity="1.00" d=" M 697.86 206.81 C 703.67 201.31 712.33 199.01 720.08 201.14 C 729.56 203.53 737.02 212.33 737.61 222.12 C 738.13 229.13 735.44 236.37 730.23 241.12 C 704.83 264.74 679.37 288.27 653.98 311.89 C 729.66 311.89 805.33 311.93 881.01 311.89 C 884.02 311.91 887.06 311.77 890.07 312.11 C 896.77 312.90 903.05 316.75 906.79 322.37 C 911.23 328.89 912.00 337.69 908.83 344.91 C 905.24 353.40 896.25 359.25 887.03 359.10 C 809.75 359.08 732.47 359.11 655.19 359.11 C 681.23 382.64 707.29 406.16 733.34 429.69 C 739.18 434.98 742.03 443.33 740.63 451.09 C 739.05 461.18 730.12 469.59 719.93 470.49 C 713.28 471.27 706.42 468.96 701.47 464.48 C 661.72 428.62 621.99 392.74 582.25 356.87 C 579.62 354.45 576.74 352.23 574.67 349.29 C 570.21 343.06 568.93 334.60 571.66 327.41 C 573.08 323.35 575.83 319.91 578.97 317.03 C 618.61 280.31 658.23 243.55 697.86 206.81 Z" />
<path fill="#efc238" opacity="1.00" d=" M 521.21 858.33 C 527.36 858.34 533.51 858.33 539.66 858.34 C 562.19 906.39 584.71 954.45 607.27 1002.49 C 607.91 1003.32 608.18 1005.44 606.69 1005.44 C 593.95 1005.63 581.19 1005.46 568.45 1005.52 C 565.49 999.19 562.55 992.86 559.57 986.55 C 540.27 986.57 520.97 986.56 501.67 986.56 C 498.75 992.88 495.90 999.22 492.96 1005.53 C 480.32 1005.47 467.68 1005.59 455.04 1005.48 C 453.26 1005.66 453.40 1003.28 454.24 1002.33 C 476.58 954.34 498.87 906.33 521.21 858.33 M 530.71 923.89 C 526.29 933.40 521.86 942.90 517.45 952.41 C 526.24 952.42 535.02 952.42 543.80 952.41 C 539.44 942.90 535.09 933.39 530.71 923.89 Z" />
<path fill="#efc238" opacity="1.00" d=" M 932.33 860.96 C 932.13 859.83 932.58 858.16 934.05 858.37 C 961.34 858.28 988.64 858.37 1015.94 858.32 C 1018.69 858.29 1021.46 858.24 1024.20 858.69 C 1024.24 869.56 1024.15 880.43 1024.25 891.31 C 1021.21 891.97 1018.09 891.74 1015.03 891.75 C 1000.80 891.74 986.57 891.75 972.34 891.75 C 972.33 899.05 972.33 906.36 972.33 913.67 C 986.58 913.66 1000.82 913.67 1015.06 913.65 C 1016.53 913.50 1018.70 913.73 1018.21 915.86 C 1018.27 926.34 1018.20 936.82 1018.23 947.30 C 1002.97 948.15 987.63 947.43 972.34 947.66 C 972.33 955.87 972.33 964.07 972.34 972.27 C 986.22 972.27 1000.10 972.27 1013.99 972.27 C 1017.40 972.30 1020.85 972.00 1024.23 972.69 C 1024.10 983.23 1024.36 993.78 1024.11 1004.32 C 1023.89 1004.55 1023.45 1005.01 1023.23 1005.24 C 993.07 1005.48 962.91 1005.23 932.75 1005.36 C 931.80 996.29 932.59 987.10 932.33 977.99 C 932.33 938.98 932.34 899.97 932.33 860.96 Z" />
<path fill="#efc238" opacity="1.00" d=" M 1054.65 858.73 C 1057.42 858.20 1060.24 858.30 1063.05 858.32 C 1081.40 858.37 1099.75 858.29 1118.10 858.36 C 1134.89 858.66 1151.16 867.49 1160.80 881.20 C 1170.19 894.22 1173.27 911.53 1168.92 926.99 C 1166.34 936.48 1161.03 945.11 1154.00 951.96 C 1163.72 968.63 1173.43 985.31 1183.16 1001.97 C 1183.77 1002.99 1184.00 1004.10 1183.85 1005.31 C 1168.91 1005.37 1153.97 1005.31 1139.03 1005.34 C 1131.49 992.50 1124.15 979.55 1116.49 966.78 C 1109.22 966.94 1101.95 966.81 1094.69 966.86 C 1094.68 976.57 1094.68 986.29 1094.69 996.01 C 1094.67 999.12 1094.90 1002.28 1094.27 1005.36 C 1081.11 1005.21 1067.95 1005.52 1054.80 1005.20 C 1054.47 956.38 1054.77 907.55 1054.65 858.73 M 1094.69 892.44 C 1094.69 905.62 1094.68 918.80 1094.69 931.98 C 1102.48 931.94 1110.27 932.05 1118.07 931.94 C 1124.67 931.80 1131.05 928.03 1134.36 922.31 C 1138.16 915.94 1137.91 907.44 1133.76 901.29 C 1130.32 895.99 1124.19 892.58 1117.87 892.46 C 1110.14 892.38 1102.41 892.46 1094.69 892.44 Z" />
<path fill="#efc238" opacity="1.00" d=" M 332.56 874.59 C 345.29 864.22 361.60 858.38 378.02 858.33 C 397.70 858.02 417.24 866.21 430.93 880.33 C 423.19 888.16 415.42 895.94 407.70 903.78 C 406.16 905.27 404.79 907.02 402.91 908.11 C 400.46 906.64 398.48 904.52 395.97 903.15 C 386.53 897.80 374.56 897.32 364.60 901.52 C 356.21 905.02 349.69 912.49 347.16 921.20 C 343.13 934.35 347.02 950.27 358.49 958.48 C 368.28 965.60 381.91 966.61 392.92 961.82 C 396.73 960.24 399.83 957.48 403.02 954.96 C 411.26 962.74 419.15 970.88 427.32 978.75 C 428.70 980.03 429.92 981.48 431.01 983.05 C 421.44 992.70 409.27 999.80 396.04 1003.02 C 379.76 1007.08 362.09 1005.29 346.98 998.00 C 331.54 990.65 318.87 977.70 311.83 962.12 C 305.01 947.21 303.48 929.99 307.41 914.09 C 311.18 898.64 320.18 884.56 332.56 874.59 Z" />
<path fill="#efc238" opacity="1.00" d=" M 640.27 879.30 C 652.92 866.79 670.27 859.17 688.05 858.41 C 708.70 857.25 729.56 865.47 743.93 880.33 C 735.54 888.83 727.09 897.25 718.74 905.78 C 717.83 906.59 717.02 907.62 715.86 908.08 C 713.42 906.61 711.45 904.49 708.94 903.14 C 699.73 897.92 688.12 897.36 678.31 901.22 C 670.29 904.36 663.79 911.05 660.86 919.15 C 655.84 932.49 659.29 949.32 670.98 958.10 C 683.46 967.54 702.81 967.03 714.33 956.23 C 714.99 955.55 716.28 954.78 717.02 955.86 C 723.48 962.07 729.79 968.46 736.20 974.74 C 738.84 977.47 741.88 979.85 744.01 983.05 C 729.30 998.08 708.03 1006.48 687.00 1005.01 C 664.69 1003.80 643.41 991.56 630.97 973.03 C 621.59 959.36 617.16 942.43 618.51 925.92 C 619.80 908.42 627.72 891.55 640.27 879.30 Z" />
<path fill="#efc238" opacity="1.00" d=" M 776.19 859.06 C 777.61 858.20 779.36 858.60 780.95 858.49 C 791.31 858.54 801.67 858.53 812.02 858.49 C 813.24 858.69 816.11 857.95 815.91 860.04 C 816.09 876.71 815.92 893.40 815.98 910.08 C 830.61 910.08 845.24 910.08 859.87 910.08 C 859.87 894.07 859.89 878.05 859.86 862.04 C 859.77 860.48 859.77 858.07 862.02 858.55 C 873.99 858.50 885.97 858.50 897.94 858.55 C 900.14 858.18 899.88 860.57 899.89 862.00 C 899.84 909.02 899.92 956.04 899.85 1003.06 C 900.30 1004.94 898.57 1005.58 897.02 1005.35 C 884.97 1005.25 872.90 1005.47 860.85 1005.24 C 860.63 1004.99 860.19 1004.49 859.97 1004.24 C 859.74 986.21 859.94 968.16 859.87 950.13 C 845.24 950.12 830.61 950.12 815.98 950.13 C 815.98 967.43 815.97 984.74 815.99 1002.05 C 815.97 1003.48 816.13 1005.71 813.97 1005.31 C 801.97 1005.36 789.96 1005.36 777.96 1005.31 C 775.81 1005.69 775.98 1003.42 775.97 1002.03 C 775.99 961.68 775.97 921.33 775.98 880.99 C 776.12 873.68 775.69 866.35 776.19 859.06 Z" />
</g>
<g id="#222120ff">
<path fill="#222120" opacity="1.00" d=" M 43.75 695.76 C 57.61 686.69 74.62 682.64 91.08 684.37 C 107.98 685.97 124.09 693.86 135.93 706.00 C 126.63 715.32 117.46 724.77 108.06 733.99 C 96.04 722.42 75.58 720.97 62.46 731.46 C 47.84 742.99 46.69 767.20 59.41 780.55 C 71.29 793.12 93.36 793.81 106.07 782.12 C 106.54 781.81 107.49 781.20 107.96 780.89 C 110.07 782.08 111.58 784.07 113.33 785.72 C 120.88 793.14 128.35 800.63 135.97 807.99 C 135.35 808.99 134.65 809.93 133.85 810.81 C 121.97 821.97 106.34 829.14 90.07 830.53 C 75.69 831.83 60.94 828.77 48.30 821.77 C 34.60 814.26 23.43 802.24 16.94 788.03 C 9.50 771.92 8.26 753.09 13.41 736.13 C 18.33 719.64 29.31 705.09 43.75 695.76 Z" />
<path fill="#222120" opacity="1.00" d=" M 169.03 684.11 C 185.33 683.84 201.65 684.08 217.95 684.00 C 225.93 684.12 234.03 683.44 241.87 685.32 C 256.69 688.60 269.84 698.50 277.23 711.74 C 284.43 724.42 286.17 740.06 281.86 754.00 C 279.19 762.98 274.00 771.09 267.34 777.65 C 276.94 794.07 286.47 810.54 296.11 826.94 C 296.81 828.17 297.59 829.51 297.14 831.03 C 282.21 830.96 267.27 831.03 252.34 830.99 C 244.89 818.16 237.43 805.34 229.96 792.52 C 222.65 792.52 215.33 792.52 208.02 792.52 C 207.93 805.03 208.20 817.54 207.90 830.04 C 207.69 830.25 207.25 830.68 207.04 830.89 C 194.67 831.14 182.27 830.96 169.90 830.97 C 168.18 831.27 167.82 829.25 167.98 828.02 C 168.10 780.35 167.84 732.67 168.11 685.01 C 168.34 684.78 168.80 684.33 169.03 684.11 M 208.02 718.10 C 208.02 731.28 208.01 744.47 208.03 757.65 C 215.99 757.58 223.95 757.76 231.91 757.58 C 241.65 757.26 250.16 748.69 250.37 738.93 C 251.12 728.82 242.94 719.08 232.80 718.24 C 224.55 717.90 216.28 718.21 208.02 718.10 Z" />
<path fill="#222120" opacity="1.00" d=" M 319.77 683.98 C 349.22 684.02 378.67 684.00 408.12 683.98 C 409.30 683.96 411.52 683.99 411.18 685.83 C 411.24 696.28 411.24 706.74 411.15 717.20 C 393.89 717.70 376.61 717.27 359.34 717.42 C 359.33 724.72 359.32 732.03 359.35 739.34 C 374.63 739.55 389.96 738.89 405.22 739.67 C 405.21 750.14 405.28 760.62 405.21 771.09 C 405.69 773.11 403.52 773.54 402.06 773.35 C 387.82 773.32 373.58 773.34 359.34 773.34 C 359.33 781.53 359.34 789.73 359.33 797.93 C 373.89 797.94 388.46 797.95 403.02 797.93 C 405.59 797.98 408.22 797.65 410.75 798.28 C 411.49 799.71 411.12 801.42 411.24 802.99 C 411.12 811.69 411.30 820.39 411.17 829.09 C 411.54 831.08 409.39 830.98 408.08 831.01 C 378.63 831.00 349.19 830.98 319.74 831.02 C 319.11 827.70 319.32 824.32 319.34 820.98 C 319.33 778.66 319.33 736.35 319.34 694.04 C 319.33 690.68 319.09 687.28 319.77 683.98 Z" />
<path fill="#222120" opacity="1.00" d=" M 441.86 684.11 C 455.59 683.86 469.32 684.07 483.06 684.00 C 491.73 684.12 500.50 683.50 509.09 685.12 C 526.91 688.18 543.36 698.24 554.35 712.57 C 564.15 725.19 569.62 741.07 569.66 757.05 C 569.82 773.32 564.34 789.57 554.36 802.42 C 540.95 820.01 519.23 830.94 497.08 830.99 C 478.67 830.95 460.27 831.13 441.86 830.89 C 441.40 807.62 441.80 784.33 441.67 761.05 C 441.79 735.41 441.41 709.75 441.86 684.11 M 481.47 724.90 C 481.49 747.09 481.46 769.28 481.49 791.48 C 489.65 791.15 498.05 792.43 506.02 790.08 C 519.17 786.29 529.18 773.70 529.78 760.00 C 530.78 746.29 522.11 732.72 509.45 727.51 C 500.65 723.56 490.80 725.20 481.47 724.90 Z" />
<path fill="#222120" opacity="1.00" d=" M 598.98 686.91 C 598.80 685.67 599.21 683.73 600.88 684.03 C 630.68 683.91 660.49 684.13 690.29 683.92 C 691.39 687.84 690.71 691.96 690.87 695.98 C 690.74 702.93 691.16 709.91 690.67 716.85 C 690.24 716.98 689.39 717.25 688.96 717.38 C 672.31 717.47 655.66 717.39 639.01 717.41 C 638.98 724.71 639.00 732.02 639.00 739.33 C 651.01 739.33 663.02 739.33 675.03 739.34 C 678.33 739.35 681.68 739.04 684.94 739.81 C 684.75 750.53 685.10 761.25 684.78 771.96 C 684.85 773.89 682.17 773.12 681.00 773.37 C 667.00 773.29 653.01 773.36 639.01 773.33 C 638.99 781.53 639.00 789.73 639.00 797.94 C 656.12 797.89 673.24 798.02 690.36 797.87 C 691.46 803.50 690.61 809.28 690.88 814.99 C 690.61 820.34 691.48 825.79 690.33 831.07 C 660.53 830.88 630.72 831.09 600.92 830.97 C 599.26 831.25 598.76 829.41 598.99 828.16 C 599.01 781.08 599.01 733.99 598.98 686.91 Z" />
<path fill="#222120" opacity="1.00" d=" M 721.32 687.00 C 721.22 685.90 721.47 683.98 723.03 684.23 C 728.07 684.06 733.11 684.26 738.16 684.18 C 760.57 706.48 782.91 728.87 805.33 751.17 C 805.34 729.75 805.34 708.33 805.32 686.91 C 805.22 685.83 805.50 683.97 807.02 684.23 C 818.68 684.11 830.35 684.23 842.01 684.18 C 843.29 684.24 845.60 683.92 845.29 685.98 C 845.32 734.04 845.45 782.13 845.22 830.19 C 844.97 830.41 844.46 830.85 844.21 831.08 C 838.88 831.38 833.53 831.11 828.20 831.15 C 805.95 808.73 783.62 786.38 761.33 764.00 C 761.31 785.70 761.37 807.41 761.30 829.10 C 761.71 831.16 759.43 831.30 758.01 831.21 C 745.90 831.17 733.79 831.19 721.69 831.19 C 720.87 819.84 721.56 808.41 721.33 797.03 C 721.32 760.35 721.35 723.68 721.32 687.00 Z" />
<path fill="#222120" opacity="1.00" d=" M 874.59 688.96 C 874.64 687.14 874.01 683.68 876.94 684.24 C 914.28 684.20 951.62 684.16 988.96 684.26 C 990.93 684.12 990.53 686.70 990.62 687.98 C 990.29 699.97 991.11 712.03 990.20 723.99 C 977.53 724.01 964.86 723.99 952.19 724.01 C 952.19 755.67 952.19 787.33 952.18 818.99 C 951.94 822.86 952.76 826.90 951.75 830.66 C 938.79 831.49 925.71 830.70 912.71 831.05 C 911.94 827.74 912.23 824.33 912.23 820.97 C 912.22 788.65 912.23 756.32 912.23 724.00 C 899.76 723.94 887.30 724.10 874.85 723.92 C 874.31 712.28 874.80 700.61 874.59 688.96 Z" />
<path fill="#222120" opacity="1.00" d=" M 1020.10 684.27 C 1033.12 683.61 1046.21 684.21 1059.26 683.98 C 1059.92 687.59 1059.63 691.28 1059.66 694.94 C 1059.68 739.31 1059.65 783.68 1059.68 828.05 C 1059.77 829.13 1059.48 831.01 1057.96 830.77 C 1045.68 830.80 1033.38 830.93 1021.11 830.70 C 1019.12 830.77 1019.81 828.20 1019.64 827.00 C 1019.70 781.99 1019.66 736.98 1019.66 691.97 C 1019.75 689.40 1019.27 686.73 1020.10 684.27 Z" />
<path fill="#222120" opacity="1.00" d=" M 1150.20 684.00 C 1156.35 684.00 1162.51 683.99 1168.67 684.01 C 1191.23 732.17 1213.83 780.32 1236.41 828.48 C 1237.36 829.51 1236.63 831.44 1235.10 831.16 C 1222.59 831.28 1210.07 831.07 1197.56 831.25 C 1194.45 824.97 1191.59 818.57 1188.60 812.24 C 1169.28 812.23 1149.96 812.22 1130.65 812.25 C 1127.77 818.57 1124.88 824.88 1121.98 831.19 C 1108.94 831.20 1095.90 831.16 1082.86 831.21 C 1082.65 829.84 1082.87 828.56 1083.52 827.36 C 1105.79 779.60 1127.97 731.79 1150.20 684.00 M 1159.71 749.57 C 1155.28 759.07 1150.86 768.57 1146.46 778.07 C 1155.24 778.09 1164.02 778.08 1172.80 778.08 C 1168.44 768.57 1164.09 759.06 1159.71 749.57 Z" />
<path fill="#222120" opacity="1.00" d=" M 1260.16 684.26 C 1273.14 683.66 1286.19 684.13 1299.20 684.04 C 1299.94 695.00 1299.31 706.03 1299.52 717.02 C 1299.52 741.69 1299.52 766.35 1299.53 791.01 C 1316.75 791.03 1333.98 791.01 1351.20 791.03 C 1352.05 796.64 1351.40 802.34 1351.60 808.00 C 1351.41 815.72 1352.00 823.47 1351.28 831.17 C 1321.49 831.19 1291.71 831.21 1261.92 831.17 C 1259.89 831.61 1259.41 829.46 1259.65 827.98 C 1259.68 782.33 1259.68 736.67 1259.65 691.02 C 1259.76 688.78 1259.24 686.37 1260.16 684.26 Z" />
<path fill="#222120" opacity="1.00" d=" M 1396.36 694.24 C 1410.92 682.00 1433.25 680.65 1449.32 690.74 C 1462.93 698.87 1471.26 714.56 1470.92 730.35 C 1459.32 730.32 1447.72 730.65 1436.13 730.38 C 1434.65 727.19 1434.30 723.11 1430.90 721.17 C 1425.63 717.09 1417.23 720.33 1415.70 726.71 C 1413.68 733.04 1419.27 740.02 1425.90 739.48 C 1441.69 739.53 1456.84 748.68 1464.67 762.32 C 1474.74 779.19 1472.33 802.50 1458.62 816.68 C 1445.30 831.24 1422.26 835.13 1404.73 826.25 C 1390.19 819.29 1380.41 803.98 1379.63 787.95 C 1379.71 786.73 1378.96 783.89 1381.04 784.12 C 1392.33 783.93 1403.64 783.95 1414.93 784.14 C 1415.49 787.60 1416.50 791.43 1419.72 793.39 C 1424.74 796.99 1432.58 794.46 1434.67 788.68 C 1437.02 783.15 1432.92 776.29 1427.07 775.43 C 1422.40 774.94 1417.64 774.97 1413.12 773.59 C 1397.58 769.58 1384.88 756.59 1381.16 741.00 C 1376.75 724.20 1382.75 705.13 1396.36 694.24 Z" />
</g>
</svg>
